<svg width="14" height="14" viewBox="0 0 14 14" fill="none" xmlns="http://www.w3.org/2000/svg">
<path d="M10.3333 1.50001H12.9999C13.1767 1.50001 13.3463 1.57024 13.4713 1.69527C13.5963 1.82029 13.6666 1.98986 13.6666 2.16667V12.8333C13.6666 13.0101 13.5963 13.1797 13.4713 13.3047C13.3463 13.4298 13.1767 13.5 12.9999 13.5H0.999919C0.823108 13.5 0.653538 13.4298 0.528514 13.3047C0.40349 13.1797 0.333252 13.0101 0.333252 12.8333V2.16667C0.333252 1.98986 0.40349 1.82029 0.528514 1.69527C0.653538 1.57024 0.823108 1.50001 0.999919 1.50001H3.66659V0.166672H4.99992V1.50001H8.99992V0.166672H10.3333V1.50001ZM8.99992 2.83334H4.99992V4.16667H3.66659V2.83334H1.66659V5.5H12.3333V2.83334H10.3333V4.16667H8.99992V2.83334ZM12.3333 6.83334H1.66659V12.1667H12.3333V6.83334ZM2.99992 8.83334H4.33325V10.1667H2.99992V8.83334ZM5.66659 8.83334H10.9999V10.1667H5.66659V8.83334Z" fill="#828282"/>
</svg>
