<svg width="12" height="12" viewBox="0 0 12 12" fill="none" xmlns="http://www.w3.org/2000/svg">
<path d="M6.00008 11.8334C2.77833 11.8334 0.166748 9.22177 0.166748 6.00002C0.166748 2.77827 2.77833 0.166687 6.00008 0.166687C9.22183 0.166687 11.8334 2.77827 11.8334 6.00002C11.8334 9.22177 9.22183 11.8334 6.00008 11.8334ZM6.00008 10.6667C7.23776 10.6667 8.42474 10.175 9.29991 9.29985C10.1751 8.42468 10.6667 7.2377 10.6667 6.00002C10.6667 4.76234 10.1751 3.57536 9.29991 2.70019C8.42474 1.82502 7.23776 1.33335 6.00008 1.33335C4.7624 1.33335 3.57542 1.82502 2.70025 2.70019C1.82508 3.57536 1.33341 4.76234 1.33341 6.00002C1.33341 7.2377 1.82508 8.42468 2.70025 9.29985C3.57542 10.175 4.7624 10.6667 6.00008 10.6667ZM6.00008 5.17519L7.64975 3.52494L8.47517 4.35035L6.82491 6.00002L8.47517 7.64969L7.64975 8.4751L6.00008 6.82485L4.35041 8.4751L3.525 7.64969L5.17525 6.00002L3.525 4.35035L4.35041 3.52494L6.00008 5.17519Z" fill="white"/>
</svg>
