<svg width="14" height="15" viewBox="0 0 14 15" fill="none" xmlns="http://www.w3.org/2000/svg">
<path d="M11.0206 10.578L13.8759 13.4326L12.9326 14.376L10.0779 11.5206C9.01575 12.3721 7.69459 12.8352 6.33325 12.8333C3.02125 12.8333 0.333252 10.1453 0.333252 6.83331C0.333252 3.52131 3.02125 0.833313 6.33325 0.833313C9.64525 0.833313 12.3333 3.52131 12.3333 6.83331C12.3352 8.19465 11.8721 9.51581 11.0206 10.578ZM9.68325 10.0833C10.5293 9.21324 11.0018 8.04693 10.9999 6.83331C10.9999 4.25465 8.91125 2.16665 6.33325 2.16665C3.75459 2.16665 1.66659 4.25465 1.66659 6.83331C1.66659 9.41131 3.75459 11.5 6.33325 11.5C7.54687 11.5019 8.71318 11.0294 9.58325 10.1833L9.68325 10.0833Z" fill="#828282"/>
</svg>
